<?xml version="1.0" encoding="UTF-8" standalone="no"?>
<svg
   id="b1933d9f-1feb-4111-9493-d8515b743516"
   data-name="Calque 1"
   viewBox="0 0 502198.96 502198.96"
   version="1.1"
   sodipodi:docname="Unknown.svg"
   width="502198.94"
   height="502198.94"
   xmlns:inkscape="http://www.inkscape.org/namespaces/inkscape"
   xmlns:sodipodi="http://sodipodi.sourceforge.net/DTD/sodipodi-0.dtd"
   xmlns="http://www.w3.org/2000/svg"
   xmlns:svg="http://www.w3.org/2000/svg">
  <defs
     id="defs281" />
  <sodipodi:namedview
     id="namedview279"
     pagecolor="#ffffff"
     bordercolor="#000000"
     borderopacity="0.25"
     inkscape:showpageshadow="2"
     inkscape:pageopacity="0.0"
     inkscape:pagecheckerboard="0"
     inkscape:deskcolor="#d1d1d1"
     showgrid="false" />
  <path
     d="M 325.6,276.5 A 38.81,38.81 0 1 0 364.41,315.31 38.81,38.81 0 0 0 325.6,276.5 Z"
     id="path182" />
  <path
     d="m 465.81,103.87 -6.46,0.79 a 8.43,8.43 0 0 1 -7.54,-3 l -44,-53.79 a 71.59,71.59 0 0 0 -7.95,-8 c 0,0 -2.07,-1.72 -7.69,-6.43 a 8.41,8.41 0 0 1 0.94,-13.57 l 7.05,-4.42 a 8.37,8.37 0 0 1 4,-1.26 c 6.33,-0.37 24.44,-1 34.1,-1.26 a 8.42,8.42 0 0 1 8.19,5.76 l 21.78,65.52 a 8,8 0 0 0 0.66,1.49 l 3.23,5.71 a 8.41,8.41 0 0 1 -6.31,12.46 z"
     id="path184" />
  <path
     d="m 143.81,646 83,-88.12 a 8.92,8.92 0 0 1 5.77,-2.77 l 31.1,-2.5 a 8.91,8.91 0 0 1 8.71,12.82 l -49.86,101 a 8.91,8.91 0 0 1 -9.41,4.85 L 148.91,660.91 A 8.91,8.91 0 0 1 143.81,646 Z"
     id="path186" />
  <path
     d="m 279,620.69 6.74,1 a 8.9,8.9 0 0 1 7.39,7.07 l 10.43,52.68 a 8.9,8.9 0 0 1 -8.32,10.62 l -45.8,2.13 a 8.9,8.9 0 0 1 -8.34,-13 l 28.63,-55.84 a 8.9,8.9 0 0 1 9.27,-4.66 z"
     id="path188" />
  <path
     d="m 391.64,589.88 a 6.09,6.09 0 0 0 -8.2,-0.86 l -2.24,1.71 a 5.83,5.83 0 0 0 -1.15,8 l 60.71,83 a 22.39,22.39 0 0 0 8.66,6.56 l 6.64,2.48 c 9.23,2.76 18.35,-8.26 6.69,-18.25 z"
     id="path190" />
  <path
     d="m 379.56,556 100.14,93.68 c 4.42,4.14 11.24,2 12.75,-4.07 l 13.25,-52.85 a 9,9 0 0 0 -3.91,-9.85 L 410.7,528.7 c -9.75,-6.57 -13.1,-7.24 -19.25,-5.77 a 2.65,2.65 0 0 0 -0.37,0.12 l -6.62,2.57 c -11.85,4.6 -14.55,21.38 -4.9,30.38 z"
     id="path192" />
  <path
     d="m 506.49,340.89 -4.87,47.51 A 11.05,11.05 0 0 0 513,400.57 l 166.8,-5.24 a 11.06,11.06 0 0 0 10.71,-11.05 v -55.15 a 11.06,11.06 0 0 0 -11.94,-11 L 516.61,331 a 11.07,11.07 0 0 0 -10.12,9.89 z"
     id="path194" />
  <path
     d="m 506.26,258.9 -4.07,38.44 A 8.74,8.74 0 0 0 510,307 l 44.86,4.75 a 8.74,8.74 0 0 0 9.65,-8.91 l -0.41,-16.6 a 8.75,8.75 0 0 0 -3.93,-7.08 l -40.38,-26.58 a 8.73,8.73 0 0 0 -13.53,6.32 z"
     id="path196" />
  <path
     d="m 586.58,274 6.07,23.44 a 9.5,9.5 0 0 0 10,7.09 l 61.06,-5.05 a 9.5,9.5 0 0 0 8.56,-7.77 l 7.63,-41.92 A 9.49,9.49 0 0 0 667.69,239 l -74.77,23.53 A 9.5,9.5 0 0 0 586.58,274 Z"
     id="path198" />
  <path
     d="m 562.62,207.91 110.52,-5.45 a 9,9 0 0 1 9.1,9 v 3 a 9,9 0 0 1 -6.37,8.59 l -77.41,23.52 a 8.93,8.93 0 0 1 -7.88,-1.33 L 560.7,223.51 c -5.7,-4.15 -7.6,-15.6 1.92,-15.6 z"
     id="path200" />
  <path
     d="m 511.64,417.33 164.86,-7.92 a 11.89,11.89 0 0 1 12.38,13.22 L 687,439.27 a 11.88,11.88 0 0 1 -11.8,10.53 h -163 a 11.88,11.88 0 0 1 -11.88,-11.88 v -8.72 a 11.89,11.89 0 0 1 11.32,-11.87 z"
     id="path202" />
  <path
     d="m 499.76,475.22 -2.41,38.51 a 9.69,9.69 0 0 0 8,10.14 l 165.54,29.61 A 9.68,9.68 0 0 0 682.24,544 v -67.71 a 9.69,9.69 0 0 0 -9.66,-9.68 l -163.13,-0.46 a 9.68,9.68 0 0 0 -9.69,9.07 z"
     id="path204" />
  <path
     d="M 85.14,665.48 205.69,554.63 a 9.21,9.21 0 0 0 2.57,-9.48 l -4.42,-14.37 a 9.21,9.21 0 0 0 -11,-6.23 L 45.05,561.64 a 9.19,9.19 0 0 0 -6.42,12 l 31.62,88.14 a 9.2,9.2 0 0 0 14.89,3.7 z"
     id="path206" />
  <path
     d="m 217.86,461.43 19.62,20.76 a 8.62,8.62 0 0 1 -5.25,14.49 l -60.36,7.17 A 5.42,5.42 0 0 0 171,504.04 L 46.79,545.46 a 4.39,4.39 0 0 1 -5.73,-3.58 L 31,465.93 c -0.41,-3.09 -1.09,-8.15 -1.52,-11.24 l -5.53,-40.12 a 4.39,4.39 0 0 1 6,-4.67 l 93.2,37.1 a 4.58,4.58 0 0 0 1,0.27 l 91.12,12.81 a 4.34,4.34 0 0 1 2.59,1.35 z"
     id="path208" />
  <path
     d="M 16.72,45.74 25,174.31 a 8.73,8.73 0 0 0 10,8 L 84.55,175 a 8.7,8.7 0 0 0 7.33,-7.12 l 7.29,-42.45 a 8.64,8.64 0 0 1 4.25,-6 L 164.1,84.67 A 8.64,8.64 0 0 0 168,74.2 L 149.2,22.92 a 8.76,8.76 0 0 0 -9.68,-5.6 L 24,36.64 a 8.69,8.69 0 0 0 -7.28,9.1 z"
     id="path210" />
  <path
     d="m 29,196 53.39,-6.94 a 8.47,8.47 0 0 1 1.13,-0.07 l 43.47,0.08 a 8.63,8.63 0 0 1 6.14,14.68 l -20.24,20.59 a 8.62,8.62 0 0 0 2,13.6 l 35.62,19.59 a 8.63,8.63 0 0 1 0.33,14.92 L 65,324.85 A 8.63,8.63 0 0 1 52.18,319.73 L 21.73,206.84 A 8.63,8.63 0 0 1 29,196 Z"
     id="path212" />
  <path
     d="m 325.79,15.67 -79.49,16 A 8.83,8.83 0 0 0 239.37,42 l 15.08,80.37 a 8.83,8.83 0 0 0 6.19,6.84 l 28.67,8.42 A 8.82,8.82 0 0 0 300.14,132 L 335.88,27.16 A 8.82,8.82 0 0 0 325.79,15.67 Z"
     id="path214" />
  <path
     d="m 228.9,323 a 9.18,9.18 0 0 0 -12.9,0.73 l -33.43,37.1 c -2.09,2.32 -5.52,6.1 -7.62,8.4 l -36.8,40.35 a 9.18,9.18 0 0 0 2.91,14.51 l 47.36,22 a 9.17,9.17 0 0 0 11.94,-3.94 l 49.48,-91.16 a 9.19,9.19 0 0 0 -2,-11.26 z"
     id="path216" />
  <path
     d="m 186,275.76 a 9.21,9.21 0 0 0 -12.46,-2.94 l -61.81,36.78 c -2.68,1.6 -7.08,4.19 -9.77,5.77 L 34,355.25 a 9.22,9.22 0 0 0 -1.37,14.92 l 58.74,50.88 a 9.22,9.22 0 0 0 12.48,-0.38 L 206.11,320.58 a 9.23,9.23 0 0 0 1.3,-11.58 z"
     id="path218" />
  <path
     d="m 264.65,359.15 -26,42.23 a 9,9 0 0 0 5.16,13.39 l 21.22,6.2 a 9,9 0 0 0 10.1,-3.75 l 19.27,-29.64 a 9,9 0 0 0 -0.43,-10.44 l -14.51,-18.77 a 9,9 0 0 0 -14.81,0.78 z"
     id="path220" />
  <path
     d="m 330.53,403.41 c -1.2,15.38 -1.89,17 -8,47.44 -2.83,14.17 -4.14,25.8 -3.75,32.73 0.16,2.82 1,5.75 1.22,8.73 0.56,7.23 0.42,12.91 -2.2,14.9 -6.13,4.67 -12.51,-5.26 -14.69,-13.74 a 67.31,67.31 0 0 1 -2,-13 c -0.88,-15.61 0.38,-21.79 3.41,-36.74 1.11,-5.5 7.2,-31.76 8.09,-37.44 3.62,-23 4.76,-26.35 5.82,-39.26 a 3.91,3.91 0 0 1 4.87,-3.61 h 0.05 a 8.33,8.33 0 0 1 6.26,7.16 c 0.92,8.16 1.58,24.49 0.92,32.83 z"
     id="path222" />
  <path
     d="M 528.84,555.48 540.38,587 a 8.47,8.47 0 0 1 -0.23,6.39 L 510.86,658 a 8.74,8.74 0 0 0 6.78,12.27 L 659,689.72 a 8.43,8.43 0 0 0 9.51,-7.17 L 681.87,588 a 8.45,8.45 0 0 0 -6.31,-9.37 L 538.81,544.39 a 8.44,8.44 0 0 0 -9.97,11.09 z"
     id="path224" />
  <path
     d="m 460.21,129.82 0.3,1.33 a 8.72,8.72 0 0 1 -11.22,10.17 L 349.54,108.8 a 8.73,8.73 0 0 1 -5.93,-9.57 l 8.26,-55.86 a 8.72,8.72 0 0 1 14.65,-5 l 91.2,87.05 a 8.72,8.72 0 0 1 2.49,4.4 z"
     id="path226" />
  <path
     d="M 507.84,115.5 504,104.3 a 8.8,8.8 0 0 0 -0.42,-1 l -6.21,-12.51 a 8.77,8.77 0 0 1 -0.74,-2.18 L 484.64,26.22 a 8.52,8.52 0 0 1 8.12,-10.12 l 75.6,-2.1 a 8.51,8.51 0 0 1 7.69,12.62 L 544,84.79 c -1.5,2.73 -4.07,7.13 -5.71,9.78 l -13.79,22.34 a 8.55,8.55 0 0 1 -5.53,3.87 l -1.36,0.28 a 8.52,8.52 0 0 1 -9.77,-5.56 z"
     id="path228" />
  <path
     d="m 693.08,53.83 a 4.85,4.85 0 0 0 0.49,-7.45 L 676,28.79 a 9.85,9.85 0 0 0 -7.22,-2.88 L 598,27.61 a 8.54,8.54 0 0 0 -7.84,5.59 l -12.23,33.08 a 8.52,8.52 0 0 0 -0.19,5.35 l 6.5,22.37 a 8.34,8.34 0 0 1 0.28,3.37 l -2.4,20.6 a 8.55,8.55 0 0 0 12.4,8.6 l 9.69,-5 a 8.73,8.73 0 0 0 1.23,-0.77 z"
     id="path230" />
  <path
     d="m 257.85,268 c -4.11,-4.29 -43.48,-45.68 -73.94,-77.07 -13.69,-14.12 -26.42,-19.19 -35.49,-24.33 -3.65,-2.07 -6.35,-3.72 -6.35,-3.72 a 89.24,89.24 0 0 1 -9.15,-6.64 c 0,0 -7.86,-6.67 -9.67,-11.84 -2.57,-7.31 8.28,-13.66 14.19,-12.31 l 0.88,0.1 a 34.49,34.49 0 0 1 10.62,3.33 c 0,0 10.87,5.89 16.41,10 A 170.61,170.61 0 0 1 190,167.24 c 5.45,5.92 15.24,19 24.65,33 3.69,5.48 17.95,22.14 23.47,28.23 24.88,27.38 55.88,50.53 47.18,57.81 -2.91,2.44 -6.11,3.94 -27.45,-18.28 z"
     id="path232" />
  <path
     d="m 334.26,500.5 c 7.61,1.38 22.18,-22.5 32.74,-43.5 8.84,-17.51 7.67,-21.58 3.76,-24.42 -2.55,-1.85 -7,-2.05 -10.9,2.07 -5.48,5.8 -5.52,20.89 -11,30.6 -2,3.49 -3.6,7.14 -7.82,12.23 -9.32,11.22 -16.76,21.21 -6.78,23.02 z"
     id="path234" />
  <path
     d="m 187.37,90.63 c 7.4,-4 5.17,-32.72 1.34,-56.32 -3.2,-19.75 -6.72,-22.15 -11.83,-21.75 -3.34,0.26 -7.32,3.14 -8.11,9 -1.13,8.26 8.15,20.16 9.4,31.51 0.46,4.09 1.32,8 0.83,14.91 -1.1,15.09 -1.34,28.02 8.37,22.65 z"
     id="path236" />
  <path
     d="m 302.06,524.3 c 0.68,-8.8 -28.73,-8.54 -49.86,-5.29 -10,1.53 -17.27,9 -16.57,13.5 1.86,12.25 17.12,2.53 34.66,-0.94 11.4,-2.26 31.08,1.67 31.77,-7.27 z"
     id="path238" />
  <path
     d="m 491.11,174.71 c 8.74,1.29 10.54,-28.07 8.78,-49.37 -0.83,-10.07 -7.72,-17.85 -12.31,-17.48 -12.34,1 -3.72,16.91 -1.48,34.65 1.45,11.49 -3.85,30.88 5.01,32.2 z"
     id="path240" />
  <path
     d="m 207.47,147.61 c -4.2,8.83 23.32,16 44.34,18 9.93,0.95 19.74,-4.8 20.94,-9.63 3.22,-13 -14.95,-6.91 -32.71,-7.79 -11.54,-0.56 -28.3,-9.55 -32.57,-0.58 z"
     id="path242" />
  <path
     d="m 477.12,187.81 c 2.86,11.26 -35.32,17.57 -63.45,18.13 -13.29,0.26 -24.41,-7.72 -24.54,-13.77 -0.34,-16.3 21.64,-7.15 45.16,-6.6 15.29,0.35 39.92,-9.18 42.83,2.24 z"
     id="path244" />
  <path
     d="m 295.65,507.17 c 7,-10.5 -20.19,-32.52 -38.45,-45.68 -8.63,-6.21 -15.4,-1.13 -17.73,2.81 -6.25,10.62 11.57,14.56 27.22,24.89 10.17,6.71 24.11,25.26 28.96,17.98 z"
     id="path246" />
  <path
     d="m 307.13,536.12 c -12.5,-1.72 -20.46,32.35 -24.33,54.53 -1.83,10.47 5.7,14.34 10.26,14.72 12.27,1 8.05,-16.76 10.52,-35.35 1.61,-12.08 12.22,-32.71 3.55,-33.9 z"
     id="path248" />
  <path
     d="m 495.8,229 c 10.3,7.29 -7.21,37.59 -19.56,56.41 -5.83,8.89 -14,6.57 -17.55,3.72 -9.64,-7.67 5.59,-17.73 16.51,-33 7.09,-9.93 13.47,-32.23 20.6,-27.13 z"
     id="path250" />
  <path
     d="m 321.21,544.56 c -6.48,1.65 -1.48,16.53 1.13,37 3.32,26.07 4.89,30.75 7.28,33.25 4.93,5.16 9.15,3.41 12.13,2 6.5,-3.07 2.82,-18.28 -5.42,-38.25 -10.25,-24.8 -4.17,-36.78 -15.12,-34 z"
     id="path252" />
  <path
     d="m 512,215 c 4.9,-6.4 16.54,4.15 34.76,14.08 23.18,12.64 26.84,16 28,19.4 2.39,7.09 -1.44,11 -4.31,13.75 -6.27,5.93 -18.9,-3.32 -33.72,-19.13 C 518.31,223.43 503.75,225.8 512,215 Z"
     id="path254" />
  <path
     d="m 335.83,530 c -7.72,4.27 8.66,28.7 23,44.56 6.76,7.5 17,9.51 20.39,6.43 9.2,-8.3 -7.31,-15.7 -19.85,-28.44 -8.16,-8.28 -15.7,-26.88 -23.54,-22.55 z"
     id="path256" />
  <path
     d="m 526.35,181.05 c 3.23,8.21 29.57,-4.87 47.16,-17 8.31,-5.75 11.62,-15.6 9,-19.39 -7,-10.2 -16.51,5.21 -30.76,16 -9.27,6.99 -28.69,12.05 -25.4,20.39 z"
     id="path258" />
  <path
     d="m 527.42,153.64 c 7.67,6.74 27.56,-20.55 39,-42.28 5.41,-10.27 3.54,-22.14 -1.13,-24.66 -12.6,-6.79 -14.06,14 -22.86,32.61 -5.69,12.07 -22.79,27.49 -15.01,34.33 z"
     id="path260" />
  <path
     d="m 200.48,122 c 8.87,5 22.82,-25.71 29.63,-49.31 3.22,-11.15 -1,-22.4 -6.11,-23.92 -13.71,-4.1 -10.92,16.59 -15.77,36.56 -3.14,12.98 -16.76,31.54 -7.75,36.67 z"
     id="path262" />
  <path
     d="m 335,516.33 c 6.72,10.68 37.94,-5.14 57.41,-16.44 9.19,-5.33 7.32,-13.59 4.67,-17.32 -7.12,-10 -18,4.61 -33.83,14.67 -10.31,6.54 -32.92,11.69 -28.25,19.09 z"
     id="path264" />
  <path
     d="m 356.3,602.66 c -5.91,5.57 0.6,14.68 11.3,31.5 1.23,1.94 3.2,5.32 10.24,17.61 18.28,31.88 19.87,49.25 28.86,43.56 10.52,-6.67 -10,-41.59 -10.65,-42.58 -23.7,-37.82 -29.89,-54.82 -38.6,-50.92 a 4.18,4.18 0 0 0 -1.15,0.83 z"
     id="path266" />
  <path
     d="m 350.7,128.57 c 5,-7.51 17,-2.56 38.73,5.16 2.51,0.89 6.83,2.25 22.55,7.07 40.78,12.51 61.08,10.43 56.61,21.23 -5.23,12.63 -50,-1.63 -51.3,-2.08 -48.83,-17 -69.76,-19.88 -67.28,-30 a 4.36,4.36 0 0 1 0.69,-1.38 z"
     id="path268" />
  <path
     d="m 414.58,506.62 c 4.69,-8.19 14.62,-2 32.77,7.9 2.09,1.14 5.71,2.9 18.86,9.18 34.11,16.29 51.54,15 47.14,27 -5.14,14 -42.58,-4.52 -43.65,-5.09 -40.74,-21.77 -58.44,-26.15 -55.78,-37.42 a 5.64,5.64 0 0 1 0.66,-1.57 z"
     id="path270" />
  <path
     d="m 311.25,605.52 c 8,-1.28 9,8.6 11.75,25.86 0.32,2 1,5.32 3.63,17.36 6.77,31.23 16.72,42.07 6.34,45.54 -12.14,4.06 -19.17,-30.54 -19.34,-31.55 -6.52,-38.53 -12.8,-52.57 -3.77,-56.83 a 4.9,4.9 0 0 1 1.39,-0.38 z"
     id="path272" />
  <path
     d="m 575,176.29 c 13.8,-8.17 19.45,-7 27.43,-12.92 9.16,-6.83 3.35,-7.81 16.47,-26.74 5.61,-8.1 11.43,-16.15 20.65,-23.88 8.32,-7 25.93,-21.74 38,-15.52 5.62,2.9 7.2,12.32 10.44,31 2.47,14.17 3.71,21.25 1.63,27.23 -3.45,9.94 -13.12,16.89 -35.85,24.16 -43.72,14 -84.83,22 -90,12.87 -4.01,-7.25 3.3,-11.49 11.23,-16.2 z"
     id="path274" />
  <path
     d="m 394.33,257.93 c 12.78,-8.63 14.48,-9.11 42.08,-23.3 12.86,-6.61 22.77,-12.82 27.95,-17.45 2.11,-1.88 3.89,-4.35 6.07,-6.39 5.3,-4.94 9.84,-8.37 13,-7.56 7.48,1.89 3.68,13.06 -1.59,20.05 a 68,68 0 0 1 -8.9,9.63 c -11.66,10.4 -17.28,13.27 -30.86,20.21 -5,2.55 -29.34,14.15 -34.33,17 -20.23,11.47 -23.59,12.69 -34.34,19.9 a 3.91,3.91 0 0 1 -5.86,-1.57 v 0 a 8.3,8.3 0 0 1 1.7,-9.35 c 5.75,-5.8 18.15,-16.49 25.08,-21.17 z"
     id="path276" />
</svg>
